<?xml version="1.0" encoding="utf-8"?>
<!DOCTYPE svg PUBLIC "-//W3C//DTD SVG 1.1//EN" "http://www.w3.org/Graphics/SVG/1.1/DTD/svg11.dtd" [
	<!ENTITY st0 "fill:#FFFFFF;">
	<!ENTITY st1 "fill:#D9D9D9;">
	<!ENTITY st2 "fill:#808080;">
	<!ENTITY st3 "fill:#F7931E;">
	<!ENTITY st4 "fill:#71B1E4;">
]>
<svg version="1.1" id="img" xmlns="http://www.w3.org/2000/svg" xmlns:xlink="http://www.w3.org/1999/xlink" x="0px" y="0px"
	 width="18px" height="18px" viewBox="0 0 18 18" style="enable-background:new 0 0 18 18;" xml:space="preserve">
<path id="continuous.default" style="&st4;" d="M9,3C5.686,3,3,5.686,3,9c0,3.314,2.686,6,6,6s6-2.686,6-6C15,5.686,12.314,3,9,3z
	 M9,13c-2.206,0-4-1.794-4-4c0-2.206,1.794-4,4-4s4,1.794,4,4C13,11.206,11.206,13,9,13z M9.69,9.68l0.711,0.71
	c-0.364,0.381-0.874,0.62-1.443,0.62c-1.105,0-2-0.895-2-2s0.895-2,2-2c0.558,0,1.061,0.229,1.424,0.597L9.674,8.316
	C9.492,8.129,9.239,8.01,8.958,8.01c-0.551,0-1,0.449-1,1s0.449,1,1,1C9.25,10.01,9.507,9.88,9.69,9.68z"/>
</svg>
