<?xml version="1.0" encoding="utf-8"?>
<!DOCTYPE svg PUBLIC "-//W3C//DTD SVG 1.1//EN" "http://www.w3.org/Graphics/SVG/1.1/DTD/svg11.dtd" [
	<!ENTITY st0 "fill:#FFFFFF;">
	<!ENTITY st1 "fill:#D9D9D9;">
	<!ENTITY st2 "fill:#808080;">
	<!ENTITY st3 "fill:#F7931E;">
	<!ENTITY st4 "fill:#71B1E4;">
]>
<svg version="1.1" id="img" xmlns="http://www.w3.org/2000/svg" xmlns:xlink="http://www.w3.org/1999/xlink" x="0px" y="0px"
	 width="18px" height="18px" viewBox="0 0 18 18" style="enable-background:new 0 0 18 18;" xml:space="preserve">
<path id="discrete.default" style="&st3;" d="M9.004,15c-0.38,0-0.761-0.036-1.132-0.106l0.365-1.967l0.006,0.002
	c0.506,0.095,1.027,0.095,1.533-0.004l0.385,1.963C9.78,14.962,9.391,15,9.004,15z M12.323,13.994l-1.108-1.664
	c0.441-0.294,0.813-0.663,1.106-1.099l1.659,1.117C13.54,13.002,12.982,13.556,12.323,13.994z M5.666,13.988
	c-0.655-0.438-1.211-0.994-1.652-1.653l1.662-1.111c0.294,0.439,0.665,0.81,1.1,1.101L5.666,13.988z M3.116,10.179
	C3.039,9.794,3,9.399,3,9.006c0-0.381,0.036-0.763,0.108-1.135l1.967,0.364C5.024,8.496,5,8.751,5,9.006
	c0,0.262,0.026,0.523,0.078,0.778L3.116,10.179z M14.893,10.129l-1.974-0.327l0.012-0.062C12.976,9.504,13,9.249,13,8.994
	c0-0.267-0.027-0.537-0.082-0.803l1.959-0.4C14.96,8.188,15,8.593,15,8.994C15,9.375,14.964,9.757,14.893,10.129z M5.668,6.786
	L4.002,5.679c0.437-0.657,0.992-1.214,1.649-1.657l1.116,1.66C6.328,5.977,5.958,6.349,5.668,6.786z M12.312,6.759
	c-0.296-0.438-0.669-0.807-1.108-1.098l1.104-1.667c0.658,0.436,1.216,0.989,1.66,1.644L12.312,6.759z M8.205,5.079l-0.398-1.96
	c0.764-0.155,1.561-0.158,2.323-0.012L9.737,5.068L9.724,5.065C9.274,4.98,8.713,4.976,8.205,5.079z M9,11H7V7h2
	c1.103,0,2,0.897,2,2S10.103,11,9,11z M8,10h1c0.551,0,1-0.448,1-1S9.551,8,9,8H8V10z"/>
</svg>
