<?xml version="1.0" encoding="utf-8"?>
<!DOCTYPE svg PUBLIC "-//W3C//DTD SVG 1.1//EN" "http://www.w3.org/Graphics/SVG/1.1/DTD/svg11.dtd" [
	<!ENTITY st0 "fill:#FFFFFF;">
	<!ENTITY st1 "fill:#D9D9D9;">
	<!ENTITY st2 "fill:#808080;">
	<!ENTITY st3 "fill:#F7931E;">
	<!ENTITY st4 "fill:#71B1E4;">
]>
<svg version="1.1" id="img" xmlns="http://www.w3.org/2000/svg" xmlns:xlink="http://www.w3.org/1999/xlink" x="0px" y="0px"
	 width="18px" height="18px" viewBox="0 0 18 18" style="enable-background:new 0 0 18 18;" xml:space="preserve">
<g id="float.default">
	<path style="&st3;" d="M12.974,4.837c-1.849,0-3.026,1.569-3.026,4.581c0,3.012,1.177,4.664,3.026,4.664
		c1.849,0,3.026-1.652,3.026-4.664C16,6.42,14.823,4.837,12.974,4.837z M12.974,6.098c0.591,0,1.06,0.387,1.302,1.419l-2.759,2.759
		c-0.018-0.262-0.028-0.547-0.028-0.857C11.489,6.896,12.12,6.098,12.974,6.098z M12.974,12.821c-0.553,0-1.009-0.379-1.264-1.324
		l2.728-2.728c0.01,0.207,0.021,0.413,0.021,0.649C14.459,11.94,13.843,12.821,12.974,12.821z"/>
	<path style="&st4;" d="M2.128,13.073l0.869-0.98c0.336,0.393,0.882,0.673,1.429,0.673c1.121,0,2.031-0.826,2.101-3.292
		C6.009,10.118,5.224,10.51,4.58,10.51c-1.527,0-2.592-0.896-2.592-2.759c0-1.779,1.275-2.914,2.802-2.914
		c1.737,0,3.222,1.345,3.222,4.343c0,3.46-1.667,4.902-3.502,4.902C3.445,14.082,2.661,13.634,2.128,13.073z M6.485,8.311
		C6.317,6.742,5.672,6.07,4.804,6.07c-0.729,0-1.331,0.602-1.331,1.681c0,1.051,0.519,1.597,1.415,1.597
		C5.406,9.348,6.022,9.039,6.485,8.311z M10,12H8v2h2V12z"/>
</g>
</svg>
