<?xml version="1.0" encoding="utf-8"?>
<!DOCTYPE svg PUBLIC "-//W3C//DTD SVG 1.1//EN" "http://www.w3.org/Graphics/SVG/1.1/DTD/svg11.dtd" [
	<!ENTITY st0 "fill:#FFFFFF;">
	<!ENTITY st1 "fill:#D9D9D9;">
	<!ENTITY st2 "fill:#808080;">
	<!ENTITY st3 "fill:#F7931E;">
	<!ENTITY st4 "fill:#71B1E4;">
]>
<svg version="1.1" id="img" xmlns="http://www.w3.org/2000/svg" xmlns:xlink="http://www.w3.org/1999/xlink" x="0px" y="0px"
	 width="18px" height="18px" viewBox="0 0 18 18" style="enable-background:new 0 0 18 18;" xml:space="preserve">
<path id="integer.default" style="&st4;" d="M2.562,12.665H4.58V6.727H2.917V5.704c0.895-0.171,1.52-0.398,2.088-0.739h1.222v7.7
	h1.776V14H2.562V12.665z M9.496,13.048c2.514-2.429,4.091-4.02,4.091-5.398c0-0.952-0.526-1.563-1.492-1.563
	c-0.696,0-1.279,0.469-1.762,1.009L9.424,6.187c0.824-0.881,1.648-1.392,2.884-1.392c1.733,0,2.855,1.094,2.855,2.77
	c0,1.605-1.492,3.254-3.282,5.142c0.469-0.042,1.065-0.1,1.506-0.1h2.216V14H9.496V13.048z"/>
</svg>
