<?xml version="1.0" encoding="utf-8"?>
<!DOCTYPE svg PUBLIC "-//W3C//DTD SVG 1.1//EN" "http://www.w3.org/Graphics/SVG/1.1/DTD/svg11.dtd" [
	<!ENTITY st0 "fill:#FFFFFF;">
	<!ENTITY st1 "fill:#D9D9D9;">
	<!ENTITY st2 "fill:#808080;">
	<!ENTITY st3 "fill:#F7931E;">
	<!ENTITY st4 "fill:#71B1E4;">
]>
<svg version="1.1" id="img" xmlns="http://www.w3.org/2000/svg" xmlns:xlink="http://www.w3.org/1999/xlink" x="0px" y="0px"
	 width="18px" height="18px" viewBox="0 0 18 18" style="enable-background:new 0 0 18 18;" xml:space="preserve">
<g id="none.default">
	<path style="&st4;" d="M9.744,6.616c0-0.682-0.426-1.137-1.151-1.137c-0.582,0-1.051,0.284-1.463,0.739L6.221,5.381
		c0.625-0.724,1.506-1.236,2.571-1.236c1.477,0,2.543,0.81,2.543,2.358c0,1.804-2.216,2.443-2.018,4.275H7.883
		C7.585,8.705,9.744,7.894,9.744,6.616z M8.608,14.004c0.596,0,1.065-0.469,1.065-1.108c0-0.64-0.469-1.108-1.065-1.108
		c-0.597,0-1.051,0.469-1.051,1.108C7.557,13.535,8.011,14.004,8.608,14.004z"/>
	<path style="&st3;" d="M13.87,8.759c0-0.484-0.303-0.807-0.817-0.807c-0.413,0-0.746,0.202-1.039,0.525l-0.646-0.595
		c0.444-0.514,1.069-0.878,1.826-0.878C14.243,7.004,15,7.579,15,8.678c0,1.281-1.574,1.735-1.432,3.036h-1.019
		C12.337,10.242,13.87,9.666,13.87,8.759z M13.063,14.004c0.423,0,0.756-0.333,0.756-0.787c0-0.454-0.333-0.787-0.756-0.787
		c-0.424,0-0.746,0.333-0.746,0.787C12.317,13.671,12.64,14.004,13.063,14.004z"/>
	<path style="&st3;" d="M5.501,8.759c0-0.484-0.303-0.807-0.817-0.807c-0.413,0-0.746,0.202-1.039,0.525L3,7.881
		c0.444-0.514,1.069-0.878,1.826-0.878c1.049,0,1.806,0.575,1.806,1.674c0,1.281-1.574,1.735-1.433,3.036H4.18
		C3.968,10.242,5.501,9.666,5.501,8.759z M4.695,14.004c0.423,0,0.756-0.333,0.756-0.787c0-0.454-0.333-0.787-0.756-0.787
		c-0.424,0-0.746,0.333-0.746,0.787C3.948,13.671,4.271,14.004,4.695,14.004z"/>
</g>
</svg>
