<?xml version="1.0" encoding="utf-8"?>
<!DOCTYPE svg PUBLIC "-//W3C//DTD SVG 1.1//EN" "http://www.w3.org/Graphics/SVG/1.1/DTD/svg11.dtd" [
	<!ENTITY st0 "fill:#FFFFFF;">
	<!ENTITY st1 "fill:#D9D9D9;">
	<!ENTITY st2 "fill:#808080;">
	<!ENTITY st3 "fill:#F7931E;">
	<!ENTITY st4 "fill:#71B1E4;">
]>
<svg version="1.1" id="img" xmlns="http://www.w3.org/2000/svg" xmlns:xlink="http://www.w3.org/1999/xlink" x="0px" y="0px"
	 width="18px" height="18px" viewBox="0 0 18 18" style="enable-background:new 0 0 18 18;" xml:space="preserve">
<path id="string.default" style="&st3;" d="M5.146,6.87c-1.105,0-2.098,0.425-2.863,0.907l0.595,1.091
	c0.624-0.368,1.276-0.68,1.957-0.68c0.95,0,1.247,0.623,1.275,1.36c-2.863,0.312-4.097,1.092-4.097,2.58
	c0,1.219,0.836,2.041,2.056,2.041c0.822,0,1.531-0.411,2.155-0.935H6.28L6.394,14H7.74V9.875C7.74,7.932,6.876,6.87,5.146,6.87z
	 M6.11,12.128c-0.524,0.482-0.95,0.766-1.517,0.766c-0.581,0-1.006-0.27-1.006-0.893c0-0.694,0.624-1.19,2.523-1.432V12.128z
	 M13.254,6.866c-0.708,0-1.432,0.354-2.013,0.864l0.042-1.162v-2.58h-1.63v10.008h1.29l0.142-0.737h0.043
	c0.581,0.581,1.261,0.907,1.899,0.907c1.545,0,2.977-1.375,2.977-3.771C16.004,8.255,14.998,6.866,13.254,6.866z M12.687,12.819
	c-0.411,0-0.907-0.155-1.403-0.581V8.992c0.539-0.524,1.021-0.779,1.531-0.779c1.049,0,1.503,0.822,1.503,2.211
	C14.317,11.997,13.608,12.819,12.687,12.819z"/>
</svg>
