<?xml version="1.0" encoding="utf-8"?>
<!DOCTYPE svg PUBLIC "-//W3C//DTD SVG 1.1//EN" "http://www.w3.org/Graphics/SVG/1.1/DTD/svg11.dtd" [
	<!ENTITY st0 "fill:#FFFFFF;">
	<!ENTITY st1 "fill:#D9D9D9;">
	<!ENTITY st2 "fill:#808080;">
	<!ENTITY st3 "fill:#F7931E;">
	<!ENTITY st4 "fill:#71B1E4;">
]>
<svg version="1.1" id="img" xmlns="http://www.w3.org/2000/svg" xmlns:xlink="http://www.w3.org/1999/xlink" x="0px" y="0px"
	 width="18px" height="18px" viewBox="0 0 18 18" style="enable-background:new 0 0 18 18;" xml:space="preserve">
<g id="variant.default">
	<path style="&st4;" d="M16.314,6.823c-0.56-0.256-1.22-0.404-1.926-0.404c-0.563,0-1.095,0.095-1.571,0.262
		c0.126-0.023,0.256-0.034,0.392-0.034c1.297,0,2.353,1.056,2.353,2.353c0,1.297-1.056,2.354-2.353,2.354
		c-0.84,0-1.461-0.446-2.314-1.368c-0.264-0.284-0.549-0.615-0.871-0.991l-1.019,1.024c1.366,1.597,2.436,2.774,4.204,2.774
		c1.083,0,2.061-0.454,2.751-1.184C16.605,10.929,17,10.011,17,9C17,8.189,16.747,7.439,16.314,6.823z M4.792,5.208
		c-1.202,0-2.273,0.56-2.969,1.433C1.308,7.288,1,8.107,1,9c0,1.081,0.452,2.056,1.178,2.747c0.346,0.08,0.714,0.123,1.096,0.123
		c1.04,0,1.978-0.32,2.646-0.835c-0.358,0.213-0.718,0.318-1.128,0.318c-1.297,0-2.353-1.057-2.353-2.354
		c0-1.283,1.03-2.328,2.307-2.352c0.015-0.001,0.031-0.001,0.046-0.001c1.1,0,1.823,0.767,3.185,2.359l1.019-1.024
		C7.629,6.386,6.56,5.208,4.792,5.208z"/>
	<path style="&st3;" d="M16.314,6.823c-0.56-0.256-1.22-0.404-1.926-0.404c-0.563,0-1.095,0.095-1.571,0.262
		c-0.905,0.165-1.613,0.923-2.793,2.313l-1.019,1.024c-1.37,1.614-2.441,2.774-4.213,2.774c-1.013,0-1.934-0.398-2.613-1.045
		c0.346,0.08,0.714,0.123,1.096,0.123c1.04,0,1.978-0.32,2.646-0.835c0.607-0.36,1.211-1.032,2.057-2.029l1.019-1.024
		c1.37-1.615,2.441-2.774,4.213-2.774C14.493,5.208,15.628,5.847,16.314,6.823z"/>
</g>
</svg>
